<svg width="24" height="24" viewBox="0 0 24 24" xmlns="http://www.w3.org/2000/svg">
    <path fill-rule="evenodd" clip-rule="evenodd"
          d="M20 5h-4V3a1 1 0 00-1-1H9a1 1 0 00-1 1v2H4a1 1 0 000 2h16a1 1 0 100-2zm-6 0h-4V4h4v1z"/>
    <path d="M18 8.001a1 1 0 00-1 1v10.077A.951.951 0 0116 20H7.98A.989.989 0 017 19V9.001a1 1 0 10-2 0v9.992C4.988 20.639 6.317 21.987 8 22h7.973l.081.001A2.958 2.958 0 0019 19.105V9.001a1 1 0 00-1-1z"/>
    <path d="M11 17.001v-7a1 1 0 00-2 0v7a1 1 0 002 0zm4 0v-7a1 1 0 00-2 0v7a1 1 0 002 0z"/>
</svg>
